ffmpeg started on 2025-07-09 at 15:18:50
Report written to "D:\Convert\FFMetrics\reports\psnr_report-6.txt"
Log level: 32
Command line:
ffmpeg -hide_banner -nostdin -i "G:\\\xc0\xed\xe8\xec\xe5\\[\xd2\xee\xef]\\Fate\\[\xd4\xe8\xeb\xfc\xec] \xc2\xe5\xeb\xe8\xea\xe0\xff \xca\xe0\xec\xef\xe0\xed\xe8\xff - \xcf\xe5\xf0\xe2\xe0\xff \xec\xe8\xf1\xf1\xe8\xff\\Fate_Grand_Order_[AniLibria_TV]_[HDTV-Rip_720p]_HEVC.mkv" -i "G:\\\xc0\xed\xe8\xec\xe5\\[\xd2\xee\xef]\\Fate\\[\xd4\xe8\xeb\xfc\xec] \xc2\xe5\xeb\xe8\xea\xe0\xff \xca\xe0\xec\xef\xe0\xed\xe8\xff - \xcf\xe5\xf0\xe2\xe0\xff \xec\xe8\xf1\xf1\xe8\xff\\Fate_Grand_Order_[AniLibria_TV]_[HDTV-Rip_720p].mkv" -lavfi "[0:v]settb=AVTB,setpts=PTS-STARTPTS,format=pix_fmts=yuv420p10,fps=24000/1001,scale=1280:720:flags=bicubic[main];[1:v]settb=AVTB,setpts=PTS-STARTPTS,format=pix_fmts=yuv420p,fps=24000/1001,scale=1280:720:flags=bicubic[ref];[main][ref]psnr=eof_action=endall:stats_file='D\\:/Convert/FFMetrics/logs/psnr_logfile-6.txt'" -f null -
Input #0, matroska,webm, from 'G:\Аниме\[Топ]\Fate\[Фильм] Великая Кампания - Первая миссия\Fate_Grand_Order_[AniLibria_TV]_[HDTV-Rip_720p]_HEVC.mkv':
  Metadata:
    ENCODER         : Lavf61.7.100
  Duration: 01:12:23.17, start: -0.021000, bitrate: 764 kb/s
  Stream #0:0(jpn): Video: hevc (Main 10), yuv420p10le(tv, bt709, progressive), 1280x720 [SAR 1:1 DAR 16:9], 23.81 fps, 23.81 tbr, 1k tbn (default) (forced)
      Metadata:
        title           : Original
        ENCODER         : Lavc61.19.100 libx265
        BPS             : 566580
        DURATION        : 01:12:23.094000000
        NUMBER_OF_FRAMES: 104127
        NUMBER_OF_BYTES : 307589248
        _STATISTICS_WRITING_APP: mkvpropedit v66.0.0 ('Josie') 64-bit
        _STATISTICS_WRITING_DATE_UTC: 2025-07-09 12:00:07
        _STATISTICS_TAGS: BPS DURATION NUMBER_OF_FRAMES NUMBER_OF_BYTES
  Stream #0:1(rus): Audio: aac (LC), 48000 Hz, stereo, fltp (default) (forced)
      Metadata:
        title           : Amikiri, Hekomi, Silv, Anzen
        ENCODER         : Lavc61.19.100 aac
        BPS             : 193520
        DURATION        : 01:12:23.146000000
        NUMBER_OF_FRAMES: 203586
        NUMBER_OF_BYTES : 105061122
        _STATISTICS_WRITING_APP: mkvpropedit v66.0.0 ('Josie') 64-bit
        _STATISTICS_WRITING_DATE_UTC: 2025-07-09 12:00:07
        _STATISTICS_TAGS: BPS DURATION NUMBER_OF_FRAMES NUMBER_OF_BYTES
  Stream #0:2(rus): Subtitle: ass (ssa) (default) (forced)
      Metadata:
        title           : Надписи
        BPS             : 5
        DURATION        : 01:11:31.930000000
        NUMBER_OF_FRAMES: 19
        NUMBER_OF_BYTES : 2746
        _STATISTICS_WRITING_APP: mkvpropedit v66.0.0 ('Josie') 64-bit
        _STATISTICS_WRITING_DATE_UTC: 2025-07-09 12:00:07
        _STATISTICS_TAGS: BPS DURATION NUMBER_OF_FRAMES NUMBER_OF_BYTES
  Stream #0:3(rus): Subtitle: ass (ssa)
      Metadata:
        title           : Субтитры
        BPS             : 167
        DURATION        : 01:12:02.520000000
        NUMBER_OF_FRAMES: 1103
        NUMBER_OF_BYTES : 90745
        _STATISTICS_WRITING_APP: mkvpropedit v66.0.0 ('Josie') 64-bit
        _STATISTICS_WRITING_DATE_UTC: 2025-07-09 12:00:07
        _STATISTICS_TAGS: BPS DURATION NUMBER_OF_FRAMES NUMBER_OF_BYTES
Input #1, matroska,webm, from 'G:\Аниме\[Топ]\Fate\[Фильм] Великая Кампания - Первая миссия\Fate_Grand_Order_[AniLibria_TV]_[HDTV-Rip_720p].mkv':
  Metadata:
    encoder         : libebml v1.4.2 + libmatroska v1.6.4
    creation_time   : 2024-12-13T11:30:06.000000Z
  Duration: 01:12:23.15, start: 0.000000, bitrate: 2040 kb/s
  Stream #1:0(jpn): Video: h264 (Main), yuv420p(tv, bt709, progressive), 1280x720, SAR 1:1 DAR 16:9, 23.81 fps, 23.81 tbr, 1k tbn (default) (forced)
      Metadata:
        title           : Original
        BPS             : 1813754
        DURATION        : 01:12:23.103000000
        NUMBER_OF_FRAMES: 104127
        NUMBER_OF_BYTES : 984665538
        _STATISTICS_WRITING_APP: mkvmerge v66.0.0 ('Josie') 64-bit
        _STATISTICS_WRITING_DATE_UTC: 2024-12-13 11:30:06
        _STATISTICS_TAGS: BPS DURATION NUMBER_OF_FRAMES NUMBER_OF_BYTES
  Stream #1:1(rus): Audio: aac (LC), 48000 Hz, stereo, fltp (default) (forced)
      Metadata:
        title           : Amikiri, Hekomi, Silv, Anzen
        BPS             : 224064
        DURATION        : 01:12:23.146000000
        NUMBER_OF_FRAMES: 203585
        NUMBER_OF_BYTES : 121642914
        _STATISTICS_WRITING_APP: mkvmerge v66.0.0 ('Josie') 64-bit
        _STATISTICS_WRITING_DATE_UTC: 2024-12-13 11:30:06
        _STATISTICS_TAGS: BPS DURATION NUMBER_OF_FRAMES NUMBER_OF_BYTES
  Stream #1:2(rus): Subtitle: ass (ssa) (default) (forced)
      Metadata:
        title           : Надписи
        BPS             : 5
        DURATION        : 01:11:31.930000000
        NUMBER_OF_FRAMES: 19
        NUMBER_OF_BYTES : 2746
        _STATISTICS_WRITING_APP: mkvmerge v66.0.0 ('Josie') 64-bit
        _STATISTICS_WRITING_DATE_UTC: 2024-12-13 11:30:06
        _STATISTICS_TAGS: BPS DURATION NUMBER_OF_FRAMES NUMBER_OF_BYTES
  Stream #1:3(rus): Subtitle: ass (ssa)
      Metadata:
        title           : Субтитры
        BPS             : 167
        DURATION        : 01:12:02.520000000
        NUMBER_OF_FRAMES: 1103
        NUMBER_OF_BYTES : 90745
        _STATISTICS_WRITING_APP: mkvmerge v66.0.0 ('Josie') 64-bit
        _STATISTICS_WRITING_DATE_UTC: 2024-12-13 11:30:06
        _STATISTICS_TAGS: BPS DURATION NUMBER_OF_FRAMES NUMBER_OF_BYTES
Stream mapping:
  Stream #0:0 (hevc) -> settb:default
  Stream #1:0 (h264) -> settb:default
  psnr:default -> Stream #0:0 (wrapped_avframe)
  Stream #0:1 -> #0:1 (aac (native) -> pcm_s16le (native))
Output #0, null, to 'pipe:':
  Metadata:
    encoder         : Lavf61.7.100
  Stream #0:0: Video: wrapped_avframe, yuv420p10le(tv, bt709, progressive), 1280x720 [SAR 1:1 DAR 16:9], q=2-31, 200 kb/s, 23.98 fps, 23.98 tbn
      Metadata:
        encoder         : Lavc61.19.100 wrapped_avframe
  Stream #0:1(rus): Audio: pcm_s16le, 48000 Hz, stereo, s16, 1536 kb/s (default) (forced)
      Metadata:
        title           : Amikiri, Hekomi, Silv, Anzen
        _STATISTICS_TAGS: BPS DURATION NUMBER_OF_FRAMES NUMBER_OF_BYTES
        BPS             : 193520
        DURATION        : 01:12:23.146000000
        NUMBER_OF_FRAMES: 203586
        NUMBER_OF_BYTES : 105061122
        _STATISTICS_WRITING_APP: mkvpropedit v66.0.0 ('Josie') 64-bit
        _STATISTICS_WRITING_DATE_UTC: 2025-07-09 12:00:07
        encoder         : Lavc61.19.100 pcm_s16le
frame=  328 fps=0.0 q=-0.0 size=N/A time=00:00:13.68 bitrate=N/A speed=26.6x    frame=  794 fps=774 q=-0.0 size=N/A time=00:00:33.11 bitrate=N/A speed=32.3x    frame= 1299 fps=845 q=-0.0 size=N/A time=00:00:54.17 bitrate=N/A speed=35.3x    frame= 1854 fps=899 q=-0.0 size=N/A time=00:01:17.32 bitrate=N/A speed=37.5x    frame= 2375 fps=923 q=-0.0 size=N/A time=00:01:39.05 bitrate=N/A speed=38.5x    frame= 2951 fps=957 q=-0.0 size=N/A time=00:02:03.08 bitrate=N/A speed=39.9x    frame= 3540 fps=981 q=-0.0 size=N/A time=00:02:27.64 bitrate=N/A speed=40.9x    frame= 4016 fps=975 q=-0.0 size=N/A time=00:02:47.50 bitrate=N/A speed=40.7x    frame= 4539 fps=980 q=-0.0 size=N/A time=00:03:09.31 bitrate=N/A speed=40.9x    frame= 5071 fps=983 q=-0.0 size=N/A time=00:03:31.50 bitrate=N/A speed=  41x    frame= 5645 fps=996 q=-0.0 size=N/A time=00:03:55.44 bitrate=N/A speed=41.5x    frame= 6205 fps=1002 q=-0.0 size=N/A time=00:04:18.80 bitrate=N/A speed=41.8x    frame= 6743 fps=1006 q=-0.0 size=N/A time=00:04:41.23 bitrate=N/A speed=  42x    frame= 7179 fps=995 q=-0.0 size=N/A time=00:04:59.42 bitrate=N/A speed=41.5x    frame= 7710 fps=996 q=-0.0 size=N/A time=00:05:21.57 bitrate=N/A speed=41.5x    frame= 8258 fps=999 q=-0.0 size=N/A time=00:05:44.42 bitrate=N/A speed=41.7x    frame= 8634 fps=984 q=-0.0 size=N/A time=00:06:00.10 bitrate=N/A speed=  41x    frame= 9105 fps=979 q=-0.0 size=N/A time=00:06:19.75 bitrate=N/A speed=40.8x    frame= 9596 fps=978 q=-0.0 size=N/A time=00:06:40.23 bitrate=N/A speed=40.8x    frame=10192 fps=987 q=-0.0 size=N/A time=00:07:05.09 bitrate=N/A speed=41.2x    frame=10758 fps=992 q=-0.0 size=N/A time=00:07:28.69 bitrate=N/A speed=41.4x    frame=11326 fps=998 q=-0.0 size=N/A time=00:07:52.38 bitrate=N/A speed=41.6x    frame=11850 fps=998 q=-0.0 size=N/A time=00:08:14.24 bitrate=N/A speed=41.6x    frame=12477 fps=1007 q=-0.0 size=N/A time=00:08:40.39 bitrate=N/A speed=  42x    frame=13020 fps=1009 q=-0.0 size=N/A time=00:09:03.04 bitrate=N/A speed=42.1x    frame=13494 fps=1005 q=-0.0 size=N/A time=00:09:22.81 bitrate=N/A speed=41.9x    frame=14007 fps=1005 q=-0.0 size=N/A time=00:09:44.20 bitrate=N/A speed=41.9x    frame=14584 fps=1010 q=-0.0 size=N/A time=00:10:08.27 bitrate=N/A speed=42.1x    frame=15200 fps=1015 q=-0.0 size=N/A time=00:10:33.96 bitrate=N/A speed=42.3x    frame=15772 fps=1019 q=-0.0 size=N/A time=00:10:57.82 bitrate=N/A speed=42.5x    frame=16370 fps=1024 q=-0.0 size=N/A time=00:11:22.76 bitrate=N/A speed=42.7x    frame=16957 fps=1026 q=-0.0 size=N/A time=00:11:47.24 bitrate=N/A speed=42.8x    frame=17570 fps=1032 q=-0.0 size=N/A time=00:12:12.85 bitrate=N/A speed=  43x    frame=18192 fps=1037 q=-0.0 size=N/A time=00:12:38.75 bitrate=N/A speed=43.3x    frame=18849 fps=1043 q=-0.0 size=N/A time=00:13:06.16 bitrate=N/A speed=43.5x    frame=19486 fps=1049 q=-0.0 size=N/A time=00:13:32.72 bitrate=N/A speed=43.7x    frame=20095 fps=1053 q=-0.0 size=N/A time=00:13:58.12 bitrate=N/A speed=43.9x    frame=20740 fps=1058 q=-0.0 size=N/A time=00:14:25.03 bitrate=N/A speed=44.1x    frame=21305 fps=1059 q=-0.0 size=N/A time=00:14:48.59 bitrate=N/A speed=44.2x    frame=21839 fps=1058 q=-0.0 size=N/A time=00:15:10.86 bitrate=N/A speed=44.1x    frame=22446 fps=1061 q=-0.0 size=N/A time=00:15:36.18 bitrate=N/A speed=44.2x    frame=22984 fps=1061 q=-0.0 size=N/A time=00:15:58.62 bitrate=N/A speed=44.2x    frame=23404 fps=1055 q=-0.0 size=N/A time=00:16:16.14 bitrate=N/A speed=  44x    frame=23953 fps=1055 q=-0.0 size=N/A time=00:16:39.03 bitrate=N/A speed=  44x    frame=24510 fps=1055 q=-0.0 size=N/A time=00:17:02.27 bitrate=N/A speed=  44x    frame=25030 fps=1055 q=-0.0 size=N/A time=00:17:23.95 bitrate=N/A speed=  44x    frame=25528 fps=1053 q=-0.0 size=N/A time=00:17:44.73 bitrate=N/A speed=43.9x    frame=26091 fps=1053 q=-0.0 size=N/A time=00:18:08.21 bitrate=N/A speed=43.9x    frame=26638 fps=1054 q=-0.0 size=N/A time=00:18:31.02 bitrate=N/A speed=43.9x    frame=27199 fps=1055 q=-0.0 size=N/A time=00:18:54.42 bitrate=N/A speed=  44x    frame=27793 fps=1056 q=-0.0 size=N/A time=00:19:19.19 bitrate=N/A speed=  44x    frame=28285 fps=1054 q=-0.0 size=N/A time=00:19:39.72 bitrate=N/A speed=  44x    frame=28814 fps=1054 q=-0.0 size=N/A time=00:20:01.78 bitrate=N/A speed=  44x    frame=29277 fps=1051 q=-0.0 size=N/A time=00:20:21.09 bitrate=N/A speed=43.8x    frame=29659 fps=1045 q=-0.0 size=N/A time=00:20:37.02 bitrate=N/A speed=43.6x    frame=30195 fps=1045 q=-0.0 size=N/A time=00:20:59.38 bitrate=N/A speed=43.6x    frame=30828 fps=1048 q=-0.0 size=N/A time=00:21:25.78 bitrate=N/A speed=43.7x    frame=31208 fps=1042 q=-0.0 size=N/A time=00:21:41.63 bitrate=N/A speed=43.5x    frame=31557 fps=1036 q=-0.0 size=N/A time=00:21:56.18 bitrate=N/A speed=43.2x    frame=32026 fps=1034 q=-0.0 size=N/A time=00:22:15.75 bitrate=N/A speed=43.1x    frame=32663 fps=1037 q=-0.0 size=N/A time=00:22:42.31 bitrate=N/A speed=43.3x    frame=33163 fps=1036 q=-0.0 size=N/A time=00:23:03.17 bitrate=N/A speed=43.2x    frame=33429 fps=1028 q=-0.0 size=N/A time=00:23:14.26 bitrate=N/A speed=42.9x    frame=33803 fps=1024 q=-0.0 size=N/A time=00:23:29.86 bitrate=N/A speed=42.7x    frame=34100 fps=1016 q=-0.0 size=N/A time=00:23:42.25 bitrate=N/A speed=42.4x    frame=34450 fps=1012 q=-0.0 size=N/A time=00:23:56.85 bitrate=N/A speed=42.2x    frame=34785 fps=1006 q=-0.0 size=N/A time=00:24:10.82 bitrate=N/A speed=  42x    frame=35137 fps=1001 q=-0.0 size=N/A time=00:24:25.50 bitrate=N/A speed=41.8x    frame=35674 fps=1002 q=-0.0 size=N/A time=00:24:47.90 bitrate=N/A speed=41.8x    frame=36116 fps=1000 q=-0.0 size=N/A time=00:25:06.37 bitrate=N/A speed=41.7x    frame=36538 fps=997 q=-0.0 size=N/A time=00:25:23.93 bitrate=N/A speed=41.6x    frame=37021 fps=997 q=-0.0 size=N/A time=00:25:44.08 bitrate=N/A speed=41.6x    frame=37496 fps=995 q=-0.0 size=N/A time=00:26:03.89 bitrate=N/A speed=41.5x    frame=37942 fps=994 q=-0.0 size=N/A time=00:26:22.49 bitrate=N/A speed=41.4x    frame=38306 fps=990 q=-0.0 size=N/A time=00:26:37.67 bitrate=N/A speed=41.3x    frame=38753 fps=988 q=-0.0 size=N/A time=00:26:56.32 bitrate=N/A speed=41.2x    frame=39301 fps=989 q=-0.0 size=N/A time=00:27:19.17 bitrate=N/A speed=41.3x    frame=39828 fps=990 q=-0.0 size=N/A time=00:27:41.15 bitrate=N/A speed=41.3x    frame=40337 fps=990 q=-0.0 size=N/A time=00:28:02.38 bitrate=N/A speed=41.3x    frame=40871 fps=990 q=-0.0 size=N/A time=00:28:24.66 bitrate=N/A speed=41.3x    frame=41332 fps=989 q=-0.0 size=N/A time=00:28:43.88 bitrate=N/A speed=41.2x    frame=41823 fps=988 q=-0.0 size=N/A time=00:29:04.36 bitrate=N/A speed=41.2x    frame=42417 fps=990 q=-0.0 size=N/A time=00:29:29.14 bitrate=N/A speed=41.3x    frame=42907 fps=990 q=-0.0 size=N/A time=00:29:49.57 bitrate=N/A speed=41.3x    frame=43406 fps=990 q=-0.0 size=N/A time=00:30:10.39 bitrate=N/A speed=41.3x    frame=43945 fps=990 q=-0.0 size=N/A time=00:30:32.87 bitrate=N/A speed=41.3x    frame=44515 fps=992 q=-0.0 size=N/A time=00:30:56.64 bitrate=N/A speed=41.4x    frame=45081 fps=993 q=-0.0 size=N/A time=00:31:20.25 bitrate=N/A speed=41.4x    frame=45522 fps=991 q=-0.0 size=N/A time=00:31:38.64 bitrate=N/A speed=41.3x    frame=45885 fps=988 q=-0.0 size=N/A time=00:31:53.78 bitrate=N/A speed=41.2x    frame=46202 fps=984 q=-0.0 size=N/A time=00:32:07.00 bitrate=N/A speed=  41x    frame=46506 fps=980 q=-0.0 size=N/A time=00:32:19.68 bitrate=N/A speed=40.9x    frame=46874 fps=977 q=-0.0 size=N/A time=00:32:35.03 bitrate=N/A speed=40.7x    frame=47483 fps=979 q=-0.0 size=N/A time=00:33:00.43 bitrate=N/A speed=40.8x    frame=47975 fps=979 q=-0.0 size=N/A time=00:33:20.95 bitrate=N/A speed=40.8x    frame=48423 fps=978 q=-0.0 size=N/A time=00:33:39.64 bitrate=N/A speed=40.8x    frame=49053 fps=980 q=-0.0 size=N/A time=00:34:05.91 bitrate=N/A speed=40.9x    frame=49455 fps=978 q=-0.0 size=N/A time=00:34:22.68 bitrate=N/A speed=40.8x    frame=49750 fps=974 q=-0.0 size=N/A time=00:34:34.98 bitrate=N/A speed=40.6x    frame=50181 fps=973 q=-0.0 size=N/A time=00:34:52.96 bitrate=N/A speed=40.6x    frame=50691 fps=973 q=-0.0 size=N/A time=00:35:14.23 bitrate=N/A speed=40.6x    frame=51043 fps=970 q=-0.0 size=N/A time=00:35:28.91 bitrate=N/A speed=40.5x    frame=51385 fps=967 q=-0.0 size=N/A time=00:35:43.18 bitrate=N/A speed=40.3x    frame=51937 fps=968 q=-0.0 size=N/A time=00:36:06.20 bitrate=N/A speed=40.4x    frame=52490 fps=969 q=-0.0 size=N/A time=00:36:29.27 bitrate=N/A speed=40.4x    frame=53099 fps=971 q=-0.0 size=N/A time=00:36:54.67 bitrate=N/A speed=40.5x    frame=53414 fps=968 q=-0.0 size=N/A time=00:37:07.80 bitrate=N/A speed=40.4x    frame=53751 fps=965 q=-0.0 size=N/A time=00:37:21.86 bitrate=N/A speed=40.2x    frame=54213 fps=964 q=-0.0 size=N/A time=00:37:41.13 bitrate=N/A speed=40.2x    frame=54818 fps=966 q=-0.0 size=N/A time=00:38:06.36 bitrate=N/A speed=40.3x    frame=55424 fps=968 q=-0.0 size=N/A time=00:38:31.64 bitrate=N/A speed=40.4x    frame=55946 fps=968 q=-0.0 size=N/A time=00:38:53.41 bitrate=N/A speed=40.4x    frame=56449 fps=968 q=-0.0 size=N/A time=00:39:14.39 bitrate=N/A speed=40.4x    frame=57095 fps=971 q=-0.0 size=N/A time=00:39:41.33 bitrate=N/A speed=40.5x    frame=57769 fps=974 q=-0.0 size=N/A time=00:40:09.44 bitrate=N/A speed=40.6x    frame=58417 fps=976 q=-0.0 size=N/A time=00:40:36.47 bitrate=N/A speed=40.7x    frame=58995 fps=978 q=-0.0 size=N/A time=00:41:00.58 bitrate=N/A speed=40.8x    frame=59620 fps=979 q=-0.0 size=N/A time=00:41:26.65 bitrate=N/A speed=40.8x    frame=60211 fps=981 q=-0.0 size=N/A time=00:41:51.30 bitrate=N/A speed=40.9x    frame=60877 fps=984 q=-0.0 size=N/A time=00:42:19.07 bitrate=N/A speed=  41x    frame=61458 fps=985 q=-0.0 size=N/A time=00:42:43.31 bitrate=N/A speed=41.1x    frame=62079 fps=986 q=-0.0 size=N/A time=00:43:09.21 bitrate=N/A speed=41.1x    frame=62621 fps=987 q=-0.0 size=N/A time=00:43:31.81 bitrate=N/A speed=41.2x    frame=63232 fps=988 q=-0.0 size=N/A time=00:43:57.30 bitrate=N/A speed=41.2x    frame=63795 fps=989 q=-0.0 size=N/A time=00:44:20.78 bitrate=N/A speed=41.3x    frame=64399 fps=991 q=-0.0 size=N/A time=00:44:46.01 bitrate=N/A speed=41.3x    frame=65060 fps=993 q=-0.0 size=N/A time=00:45:13.54 bitrate=N/A speed=41.4x    frame=65566 fps=993 q=-0.0 size=N/A time=00:45:34.64 bitrate=N/A speed=41.4x    frame=65946 fps=991 q=-0.0 size=N/A time=00:45:50.49 bitrate=N/A speed=41.3x    frame=66445 fps=991 q=-0.0 size=N/A time=00:46:11.31 bitrate=N/A speed=41.3x    frame=67027 fps=992 q=-0.0 size=N/A time=00:46:35.58 bitrate=N/A speed=41.4x    frame=67539 fps=992 q=-0.0 size=N/A time=00:46:56.93 bitrate=N/A speed=41.4x    frame=67973 fps=991 q=-0.0 size=N/A time=00:47:15.04 bitrate=N/A speed=41.3x    frame=68227 fps=987 q=-0.0 size=N/A time=00:47:25.63 bitrate=N/A speed=41.2x    frame=68643 fps=986 q=-0.0 size=N/A time=00:47:42.98 bitrate=N/A speed=41.1x    frame=69035 fps=984 q=-0.0 size=N/A time=00:47:59.33 bitrate=N/A speed=  41x    frame=69484 fps=983 q=-0.0 size=N/A time=00:48:18.06 bitrate=N/A speed=  41x    frame=69910 fps=982 q=-0.0 size=N/A time=00:48:35.82 bitrate=N/A speed=  41x    frame=70390 fps=982 q=-0.0 size=N/A time=00:48:55.84 bitrate=N/A speed=40.9x    frame=70832 fps=981 q=-0.0 size=N/A time=00:49:14.28 bitrate=N/A speed=40.9x    frame=71295 fps=980 q=-0.0 size=N/A time=00:49:33.59 bitrate=N/A speed=40.9x    frame=71673 fps=978 q=-0.0 size=N/A time=00:49:49.36 bitrate=N/A speed=40.8x    frame=72207 fps=979 q=-0.0 size=N/A time=00:50:11.63 bitrate=N/A speed=40.8x    frame=72736 fps=979 q=-0.0 size=N/A time=00:50:33.69 bitrate=N/A speed=40.8x    frame=73164 fps=978 q=-0.0 size=N/A time=00:50:51.54 bitrate=N/A speed=40.8x    frame=73710 fps=979 q=-0.0 size=N/A time=00:51:14.32 bitrate=N/A speed=40.8x    frame=74060 fps=977 q=-0.0 size=N/A time=00:51:28.91 bitrate=N/A speed=40.7x    frame=74368 fps=974 q=-0.0 size=N/A time=00:51:41.76 bitrate=N/A speed=40.6x    frame=74763 fps=973 q=-0.0 size=N/A time=00:51:58.24 bitrate=N/A speed=40.6x    frame=75378 fps=974 q=-0.0 size=N/A time=00:52:23.89 bitrate=N/A speed=40.6x    frame=75963 fps=975 q=-0.0 size=N/A time=00:52:48.29 bitrate=N/A speed=40.7x    frame=76393 fps=974 q=-0.0 size=N/A time=00:53:06.22 bitrate=N/A speed=40.6x    frame=76810 fps=973 q=-0.0 size=N/A time=00:53:23.61 bitrate=N/A speed=40.6x    frame=77312 fps=973 q=-0.0 size=N/A time=00:53:44.55 bitrate=N/A speed=40.6x    frame=77644 fps=971 q=-0.0 size=N/A time=00:53:58.40 bitrate=N/A speed=40.5x    frame=78029 fps=970 q=-0.0 size=N/A time=00:54:14.45 bitrate=N/A speed=40.4x    frame=78424 fps=968 q=-0.0 size=N/A time=00:54:30.93 bitrate=N/A speed=40.4x    frame=78825 fps=967 q=-0.0 size=N/A time=00:54:47.65 bitrate=N/A speed=40.3x    frame=79235 fps=966 q=-0.0 size=N/A time=00:55:04.75 bitrate=N/A speed=40.3x    frame=79735 fps=966 q=-0.0 size=N/A time=00:55:25.61 bitrate=N/A speed=40.3x    frame=80120 fps=964 q=-0.0 size=N/A time=00:55:41.67 bitrate=N/A speed=40.2x    frame=80588 fps=964 q=-0.0 size=N/A time=00:56:01.19 bitrate=N/A speed=40.2x    frame=80897 fps=962 q=-0.0 size=N/A time=00:56:14.07 bitrate=N/A speed=40.1x    frame=81270 fps=960 q=-0.0 size=N/A time=00:56:29.63 bitrate=N/A speed=40.1x    frame=81561 fps=958 q=-0.0 size=N/A time=00:56:41.77 bitrate=N/A speed=  40x    frame=82170 fps=959 q=-0.0 size=N/A time=00:57:07.17 bitrate=N/A speed=  40x    frame=82643 fps=959 q=-0.0 size=N/A time=00:57:26.90 bitrate=N/A speed=  40x    frame=83205 fps=960 q=-0.0 size=N/A time=00:57:50.34 bitrate=N/A speed=  40x    frame=83853 fps=962 q=-0.0 size=N/A time=00:58:17.36 bitrate=N/A speed=40.1x    frame=84313 fps=961 q=-0.0 size=N/A time=00:58:36.55 bitrate=N/A speed=40.1x    frame=84890 fps=962 q=-0.0 size=N/A time=00:59:00.62 bitrate=N/A speed=40.1x    frame=85496 fps=963 q=-0.0 size=N/A time=00:59:25.89 bitrate=N/A speed=40.2x    frame=86031 fps=964 q=-0.0 size=N/A time=00:59:48.20 bitrate=N/A speed=40.2x    frame=86646 fps=965 q=-0.0 size=N/A time=01:00:13.86 bitrate=N/A speed=40.2x    frame=86899 fps=962 q=-0.0 size=N/A time=01:00:24.41 bitrate=N/A speed=40.1x    frame=87461 fps=963 q=-0.0 size=N/A time=01:00:47.85 bitrate=N/A speed=40.2x    frame=88084 fps=965 q=-0.0 size=N/A time=01:01:13.83 bitrate=N/A speed=40.2x    frame=88673 fps=965 q=-0.0 size=N/A time=01:01:38.40 bitrate=N/A speed=40.3x    frame=89154 fps=965 q=-0.0 size=N/A time=01:01:58.46 bitrate=N/A speed=40.3x    frame=89656 fps=965 q=-0.0 size=N/A time=01:02:19.40 bitrate=N/A speed=40.3x    frame=90144 fps=965 q=-0.0 size=N/A time=01:02:39.75 bitrate=N/A speed=40.3x    frame=90671 fps=966 q=-0.0 size=N/A time=01:03:01.73 bitrate=N/A speed=40.3x    frame=91061 fps=965 q=-0.0 size=N/A time=01:03:18.00 bitrate=N/A speed=40.2x    frame=91541 fps=964 q=-0.0 size=N/A time=01:03:38.02 bitrate=N/A speed=40.2x    frame=92099 fps=965 q=-0.0 size=N/A time=01:04:01.29 bitrate=N/A speed=40.2x    frame=92658 fps=965 q=-0.0 size=N/A time=01:04:24.61 bitrate=N/A speed=40.3x    frame=93072 fps=965 q=-0.0 size=N/A time=01:04:41.87 bitrate=N/A speed=40.2x    frame=93518 fps=964 q=-0.0 size=N/A time=01:05:00.47 bitrate=N/A speed=40.2x    frame=94034 fps=964 q=-0.0 size=N/A time=01:05:22.00 bitrate=N/A speed=40.2x    frame=94355 fps=963 q=-0.0 size=N/A time=01:05:35.38 bitrate=N/A speed=40.1x    frame=94764 fps=962 q=-0.0 size=N/A time=01:05:52.44 bitrate=N/A speed=40.1x    frame=95297 fps=962 q=-0.0 size=N/A time=01:06:14.67 bitrate=N/A speed=40.1x    frame=95767 fps=962 q=-0.0 size=N/A time=01:06:34.28 bitrate=N/A speed=40.1x    frame=96371 fps=963 q=-0.0 size=N/A time=01:06:59.47 bitrate=N/A speed=40.2x    frame=96850 fps=963 q=-0.0 size=N/A time=01:07:19.45 bitrate=N/A speed=40.1x    frame=97305 fps=962 q=-0.0 size=N/A time=01:07:38.42 bitrate=N/A speed=40.1x    frame=97812 fps=962 q=-0.0 size=N/A time=01:07:59.57 bitrate=N/A speed=40.1x    frame=98379 fps=963 q=-0.0 size=N/A time=01:08:23.22 bitrate=N/A speed=40.2x    frame=98953 fps=964 q=-0.0 size=N/A time=01:08:47.16 bitrate=N/A speed=40.2x    frame=99490 fps=964 q=-0.0 size=N/A time=01:09:09.56 bitrate=N/A speed=40.2x    frame=100076 fps=965 q=-0.0 size=N/A time=01:09:34.00 bitrate=N/A speed=40.3x    frame=100625 fps=966 q=-0.0 size=N/A time=01:09:56.90 bitrate=N/A speed=40.3x    frame=100984 fps=964 q=-0.0 size=N/A time=01:10:11.87 bitrate=N/A speed=40.2x    frame=101492 fps=964 q=-0.0 size=N/A time=01:10:33.06 bitrate=N/A speed=40.2x    frame=102007 fps=964 q=-0.0 size=N/A time=01:10:54.54 bitrate=N/A speed=40.2x    frame=102477 fps=964 q=-0.0 size=N/A time=01:11:14.14 bitrate=N/A speed=40.2x    frame=102763 fps=962 q=-0.0 size=N/A time=01:11:26.07 bitrate=N/A speed=40.1x    frame=103083 fps=961 q=-0.0 size=N/A time=01:11:39.42 bitrate=N/A speed=40.1x    frame=103384 fps=959 q=-0.0 size=N/A time=01:11:51.97 bitrate=N/A speed=  40x    frame=103727 fps=957 q=-0.0 size=N/A time=01:12:06.28 bitrate=N/A speed=39.9x    [Parsed_psnr_10 @ 0000025d10c5fe00] PSNR y:32.423650 u:42.942839 v:42.212196 average:33.979167 min:4.029298 max:62.494449
[out#0/null @ 0000025d0c9281c0] video:44743KiB audio:814344KiB subtitle:0KiB other streams:0KiB global headers:0KiB muxing overhead: unknown
frame=104130 fps=957 q=-0.0 Lsize=N/A time=01:12:23.08 bitrate=N/A speed=39.9x    
